<svg xmlns="http://www.w3.org/2000/svg" version="1.1" xmlns:xlink="http://www.w3.org/1999/xlink" width="1000" height="1000"><style>
    #light-icon {
      display: inline;
    }
    #dark-icon {
      display: none;
    }

    @media (prefers-color-scheme: dark) {
      #light-icon {
        display: none;
      }
      #dark-icon {
        display: inline;
      }
    }
  </style><g id="light-icon"><svg xmlns="http://www.w3.org/2000/svg" version="1.1" xmlns:xlink="http://www.w3.org/1999/xlink" width="1000" height="1000"><g><g transform="matrix(1.953125,0,0,1.953125,0,0)"><svg xmlns="http://www.w3.org/2000/svg" version="1.1" xmlns:xlink="http://www.w3.org/1999/xlink" width="512px" height="512px"><svg width="512px" height="512px" viewBox="0 0 512 512" version="1.1" xmlns="http://www.w3.org/2000/svg" xmlns:xlink="http://www.w3.org/1999/xlink">
    <g stroke="none" stroke-width="1" fill="none" fill-rule="evenodd">
        <g transform="translate(47.000000, 128.000000)" fill-rule="nonzero">
            <path d="M18.3445357,93.9444444 L18.3445357,61.3541667 L34.5451042,61.3541667 C54.1701832,61.3541667 62.7314593,54.4930556 62.7314593,30.2152778 C62.7314593,7.91666667 54.4336071,0 34.8085281,0 L0.3,0 L0.3,93.9444444 L18.3445357,93.9444444 Z M32.3916639,46.0476763 L18.3445357,46.0486111 L18.3445357,16.3611111 L32.0425774,16.3611111 C41.3941251,16.3611111 44.1600758,18.8680556 44.1600758,30.875 C44.1600758,43.7801205 41.8460448,45.9961513 32.3916639,46.0476763 L32.3916639,46.0476763 Z M98.5571068,95 C120.026153,95 127.138598,86.5555556 127.138598,60.6944444 C127.138598,35.0972222 119.631017,26.3888889 98.5571068,26.3888889 C77.4831965,26.3888889 69.9756159,34.3055556 69.9756159,60.6944444 C69.9756159,86.5555556 77.0880606,95 98.5571068,95 Z M98.8281974,81.6726108 L98.5571068,81.6736111 C90.2162749,81.6736111 87.6783573,78.9608041 87.6258517,61.2643276 L87.6250158,60.6944444 C87.6250158,43.9375 90.1275426,41.2986111 98.5571068,41.2986111 C107.118383,41.2986111 109.357486,43.9375 109.357486,60.6944444 C109.357486,78.5785313 107.16577,81.6101326 98.8281974,81.6726108 L98.8281974,81.6726108 Z M154.929817,93.9444444 L154.929817,49.7430556 C154.929817,44.0694444 157.16892,41.8263889 162.832533,41.8263889 L171.525521,41.8263889 L171.525521,27.4444444 L160.461718,27.4444444 C144.129438,27.4444444 137.543841,34.1736111 137.543841,50.4027778 L137.543841,93.9444444 L154.929817,93.9444444 Z M201.555843,95 C221.444346,95 227.503095,86.9513889 227.503095,75.3402778 C227.503095,64.125 222.36633,57.7916667 210.907391,55.5486111 L202.741251,53.9652778 C195.497094,52.5138889 193.784839,50.7986111 193.784839,46.5763889 C193.784839,41.6944444 195.760518,40.2430556 202.477827,40.2430556 C208.931712,40.2430556 210.907391,41.9583333 211.302527,48.9513889 L226.4494,48.9513889 C226.4494,33.25 219.995515,26.3888889 202.082691,26.3888889 C186.145546,26.3888889 177.189135,32.9861111 177.189135,46.8402778 C177.189135,59.5069444 184.301579,65.3125 194.311687,67.2916667 L202.477827,68.875 C209.195136,70.1944444 210.907391,71.25 210.907391,75.8680556 C210.907391,80.4861111 209.326848,82.5972222 202.082691,82.5972222 C195.365382,82.5972222 192.862855,80.75 192.46772,73.7569444 L176.925711,73.7569444 C177.58427,85.7638889 181.008781,95 201.555843,95 Z M263.197031,95 C280.714719,95 288.090587,86.8194444 288.880859,67.8194444 L272.812003,67.8194444 C272.285155,78.5069444 270.309476,81.6736111 263.065319,81.6736111 C254.856691,81.6736111 252.963901,79.0911674 252.924145,61.9193052 L252.9235,61.3541667 C252.9235,43.9375 254.767467,41.2986111 263.065319,41.2986111 C270.177764,41.2986111 272.153443,43.9375 272.812003,54.2291667 L288.880859,54.2291667 C288.090587,35.4930556 282.558686,26.3888889 263.197031,26.3888889 C242.649968,26.3888889 235.142388,35.2291667 235.142388,60.6944444 C235.142388,85.7638889 241.859697,95 263.197031,95 Z M316.540366,93.9444444 L316.540366,54.3611111 C316.540366,44.0694444 318.911181,41.5625 325.891914,41.5625 C332.740935,41.5625 334.980038,44.4652778 334.980038,54.625 L334.980038,93.9444444 L352.497726,93.9444444 L352.497726,50.7986111 C352.497726,34.8333333 346.834112,26.3888889 331.687239,26.3888889 C324.311371,26.3888889 319.306317,28.7638889 316.540366,33.6458333 L316.540366,0 L299.15439,0 L299.15439,93.9444444 L316.540366,93.9444444 Z M391.352748,95 C408.4753,95 415.719457,86.6875 416.773152,73.4930556 L401.231143,73.4930556 C400.572584,80.2222222 397.806633,82.0694444 391.221036,82.0694444 C383.054896,82.0694444 380.420657,79.6944444 380.157233,64.2569444 L417.3,64.2569444 L417.3,60.8263889 C417.3,37.4722222 411.768099,26.3888889 390.694188,26.3888889 C370.41055,26.3888889 362.771257,36.1527778 362.771257,60.9583333 C362.771257,85.8958333 370.147126,95 391.352748,95 Z M400.836008,52.9097222 L380.420657,52.9097222 C381.342641,42.4861111 384.635439,40.7708333 390.957612,40.7708333 C397.543209,40.7708333 400.177448,43.0138889 400.836008,52.9097222 Z" id="Porsche" fill="#000000"></path>
            <path d="M32.5245947,226.603448 C61.5795571,226.603448 69.3715698,214.903017 69.3715698,179.538793 C69.3715698,142.859914 60.9192171,133 33.0528667,133 L0.3,133 L0.3,226.603448 L32.5245947,226.603448 Z M33.4929797,212.141193 L18.3933175,212.142241 L18.3933175,149.301724 L33.0528667,149.301724 C47.844484,149.301724 50.4858442,153.771552 50.4858442,179.275862 C50.4858442,208.429655 47.8970471,212.071276 33.4929797,212.141193 L33.4929797,212.141193 Z M98.1623962,148.775862 L98.1623962,133 L80.7294187,133 L80.7294187,148.775862 L98.1623962,148.775862 Z M98.1623962,226.603448 L98.1623962,160.344828 L80.7294187,160.344828 L80.7294187,226.603448 L98.1623962,226.603448 Z M138.44314,255 C157.593001,255 166.045354,247.375 166.045354,228.838362 L166.045354,160.344828 L149.668921,160.344828 L149.668921,169.153017 C146.631356,161.396552 141.0845,159.293103 134.216963,159.293103 C117.312258,159.293103 108.991973,167.575431 108.991973,192.81681 C108.991973,218.452586 115.991578,226.471983 133.160419,226.471983 C139.631752,226.471983 145.310676,224.5 148.612376,218.321121 L148.612376,229.890086 C148.612376,239.355603 145.574812,241.721983 138.179004,241.721983 C130.386991,241.721983 128.670107,239.092672 128.273903,231.730603 L111.633333,231.730603 C112.689877,246.454741 117.708462,255 138.44314,255 Z M137.911609,213.192971 L137.650732,213.193966 C129.291262,213.193966 126.874135,210.107757 126.822021,193.379486 L126.821155,192.81681 C126.821155,176.646552 129.198379,174.148707 137.650732,174.148707 C146.103084,174.148707 148.612376,176.646552 148.612376,192.81681 C148.612376,210.241707 145.7697,213.132193 137.911609,213.192971 L137.911609,213.192971 Z M196.949268,148.775862 L196.949268,133 L179.516291,133 L179.516291,148.775862 L196.949268,148.775862 Z M196.949268,226.603448 L196.949268,160.344828 L179.516291,160.344828 L179.516291,226.603448 L196.949268,226.603448 Z M246.342705,226.603448 L246.342705,213.325431 L239.3431,213.325431 C232.871767,213.325431 230.626611,211.747845 230.626611,204.517241 L230.626611,174.674569 L246.606841,174.674569 L246.606841,160.344828 L230.626611,160.344828 L230.626611,144.568966 L213.721906,144.568966 L213.721906,160.344828 L205.533689,160.344828 L205.533689,174.674569 L213.193634,174.674569 L213.193634,203.596983 C213.193634,220.424569 219.664966,226.603448 236.0414,226.603448 L246.342705,226.603448 Z M271.831831,227.655172 C280.284183,227.655172 285.038632,224.368534 287.283788,219.767241 L287.283788,226.603448 L303.924357,226.603448 L303.924357,182.825431 C303.924357,170.599138 300.490589,159.293103 279.359707,159.293103 C260.60605,159.293103 254.002649,167.575431 253.606445,182.299569 L269.058403,182.299569 C269.190471,174.806034 271.831831,173.359914 278.303163,173.359914 C285.038632,173.359914 286.49138,175.989224 286.49138,183.74569 L286.49138,186.375 L278.171095,187.952586 C260.209846,191.37069 252.021629,196.497845 252.021629,209.644397 C252.021629,221.739224 259.28537,227.655172 271.831831,227.655172 Z M276.850415,215.165948 C271.699763,215.165948 269.190471,212.668103 269.190471,207.803879 C269.190471,202.676724 272.228035,200.310345 281.076592,198.864224 L286.49138,198.075431 L286.49138,204.648707 C286.49138,212.405172 282.793476,215.165948 276.850415,215.165948 Z M334.3,226.603448 L334.3,133 L316.867023,133 L316.867023,226.603448 L334.3,226.603448 Z" id="Digital" fill="#CE0000"></path>
        </g>
    </g>
</svg></svg></g></g></svg></g><g id="dark-icon"><svg xmlns="http://www.w3.org/2000/svg" version="1.1" xmlns:xlink="http://www.w3.org/1999/xlink" width="1000" height="1000"><g><g transform="matrix(1.953125,0,0,1.953125,0,0)"><svg xmlns="http://www.w3.org/2000/svg" version="1.1" xmlns:xlink="http://www.w3.org/1999/xlink" width="512px" height="512px"><svg width="512px" height="512px" viewBox="0 0 512 512" version="1.1" xmlns="http://www.w3.org/2000/svg" xmlns:xlink="http://www.w3.org/1999/xlink">
    <g stroke="none" stroke-width="1" fill="none" fill-rule="evenodd">
        <g transform="translate(47.000000, 128.000000)" fill-rule="nonzero">
            <path d="M18.3445357,93.9444444 L18.3445357,61.3541667 L34.5451042,61.3541667 C54.1701832,61.3541667 62.7314593,54.4930556 62.7314593,30.2152778 C62.7314593,7.91666667 54.4336071,0 34.8085281,0 L0.3,0 L0.3,93.9444444 L18.3445357,93.9444444 Z M32.3916639,46.0476763 L18.3445357,46.0486111 L18.3445357,16.3611111 L32.0425774,16.3611111 C41.3941251,16.3611111 44.1600758,18.8680556 44.1600758,30.875 C44.1600758,43.7801205 41.8460448,45.9961513 32.3916639,46.0476763 L32.3916639,46.0476763 Z M98.5571068,95 C120.026153,95 127.138598,86.5555556 127.138598,60.6944444 C127.138598,35.0972222 119.631017,26.3888889 98.5571068,26.3888889 C77.4831965,26.3888889 69.9756159,34.3055556 69.9756159,60.6944444 C69.9756159,86.5555556 77.0880606,95 98.5571068,95 Z M98.8281974,81.6726108 L98.5571068,81.6736111 C90.2162749,81.6736111 87.6783573,78.9608041 87.6258517,61.2643276 L87.6250158,60.6944444 C87.6250158,43.9375 90.1275426,41.2986111 98.5571068,41.2986111 C107.118383,41.2986111 109.357486,43.9375 109.357486,60.6944444 C109.357486,78.5785313 107.16577,81.6101326 98.8281974,81.6726108 L98.8281974,81.6726108 Z M154.929817,93.9444444 L154.929817,49.7430556 C154.929817,44.0694444 157.16892,41.8263889 162.832533,41.8263889 L171.525521,41.8263889 L171.525521,27.4444444 L160.461718,27.4444444 C144.129438,27.4444444 137.543841,34.1736111 137.543841,50.4027778 L137.543841,93.9444444 L154.929817,93.9444444 Z M201.555843,95 C221.444346,95 227.503095,86.9513889 227.503095,75.3402778 C227.503095,64.125 222.36633,57.7916667 210.907391,55.5486111 L202.741251,53.9652778 C195.497094,52.5138889 193.784839,50.7986111 193.784839,46.5763889 C193.784839,41.6944444 195.760518,40.2430556 202.477827,40.2430556 C208.931712,40.2430556 210.907391,41.9583333 211.302527,48.9513889 L226.4494,48.9513889 C226.4494,33.25 219.995515,26.3888889 202.082691,26.3888889 C186.145546,26.3888889 177.189135,32.9861111 177.189135,46.8402778 C177.189135,59.5069444 184.301579,65.3125 194.311687,67.2916667 L202.477827,68.875 C209.195136,70.1944444 210.907391,71.25 210.907391,75.8680556 C210.907391,80.4861111 209.326848,82.5972222 202.082691,82.5972222 C195.365382,82.5972222 192.862855,80.75 192.46772,73.7569444 L176.925711,73.7569444 C177.58427,85.7638889 181.008781,95 201.555843,95 Z M263.197031,95 C280.714719,95 288.090587,86.8194444 288.880859,67.8194444 L272.812003,67.8194444 C272.285155,78.5069444 270.309476,81.6736111 263.065319,81.6736111 C254.856691,81.6736111 252.963901,79.0911674 252.924145,61.9193052 L252.9235,61.3541667 C252.9235,43.9375 254.767467,41.2986111 263.065319,41.2986111 C270.177764,41.2986111 272.153443,43.9375 272.812003,54.2291667 L288.880859,54.2291667 C288.090587,35.4930556 282.558686,26.3888889 263.197031,26.3888889 C242.649968,26.3888889 235.142388,35.2291667 235.142388,60.6944444 C235.142388,85.7638889 241.859697,95 263.197031,95 Z M316.540366,93.9444444 L316.540366,54.3611111 C316.540366,44.0694444 318.911181,41.5625 325.891914,41.5625 C332.740935,41.5625 334.980038,44.4652778 334.980038,54.625 L334.980038,93.9444444 L352.497726,93.9444444 L352.497726,50.7986111 C352.497726,34.8333333 346.834112,26.3888889 331.687239,26.3888889 C324.311371,26.3888889 319.306317,28.7638889 316.540366,33.6458333 L316.540366,0 L299.15439,0 L299.15439,93.9444444 L316.540366,93.9444444 Z M391.352748,95 C408.4753,95 415.719457,86.6875 416.773152,73.4930556 L401.231143,73.4930556 C400.572584,80.2222222 397.806633,82.0694444 391.221036,82.0694444 C383.054896,82.0694444 380.420657,79.6944444 380.157233,64.2569444 L417.3,64.2569444 L417.3,60.8263889 C417.3,37.4722222 411.768099,26.3888889 390.694188,26.3888889 C370.41055,26.3888889 362.771257,36.1527778 362.771257,60.9583333 C362.771257,85.8958333 370.147126,95 391.352748,95 Z M400.836008,52.9097222 L380.420657,52.9097222 C381.342641,42.4861111 384.635439,40.7708333 390.957612,40.7708333 C397.543209,40.7708333 400.177448,43.0138889 400.836008,52.9097222 Z" id="Porsche" fill="#FFFFFF"></path>
            <path d="M32.5245947,226.603448 C61.5795571,226.603448 69.3715698,214.903017 69.3715698,179.538793 C69.3715698,142.859914 60.9192171,133 33.0528667,133 L0.3,133 L0.3,226.603448 L32.5245947,226.603448 Z M33.4929797,212.141193 L18.3933175,212.142241 L18.3933175,149.301724 L33.0528667,149.301724 C47.844484,149.301724 50.4858442,153.771552 50.4858442,179.275862 C50.4858442,208.429655 47.8970471,212.071276 33.4929797,212.141193 L33.4929797,212.141193 Z M98.1623962,148.775862 L98.1623962,133 L80.7294187,133 L80.7294187,148.775862 L98.1623962,148.775862 Z M98.1623962,226.603448 L98.1623962,160.344828 L80.7294187,160.344828 L80.7294187,226.603448 L98.1623962,226.603448 Z M138.44314,255 C157.593001,255 166.045354,247.375 166.045354,228.838362 L166.045354,160.344828 L149.668921,160.344828 L149.668921,169.153017 C146.631356,161.396552 141.0845,159.293103 134.216963,159.293103 C117.312258,159.293103 108.991973,167.575431 108.991973,192.81681 C108.991973,218.452586 115.991578,226.471983 133.160419,226.471983 C139.631752,226.471983 145.310676,224.5 148.612376,218.321121 L148.612376,229.890086 C148.612376,239.355603 145.574812,241.721983 138.179004,241.721983 C130.386991,241.721983 128.670107,239.092672 128.273903,231.730603 L111.633333,231.730603 C112.689877,246.454741 117.708462,255 138.44314,255 Z M137.911609,213.192971 L137.650732,213.193966 C129.291262,213.193966 126.874135,210.107757 126.822021,193.379486 L126.821155,192.81681 C126.821155,176.646552 129.198379,174.148707 137.650732,174.148707 C146.103084,174.148707 148.612376,176.646552 148.612376,192.81681 C148.612376,210.241707 145.7697,213.132193 137.911609,213.192971 L137.911609,213.192971 Z M196.949268,148.775862 L196.949268,133 L179.516291,133 L179.516291,148.775862 L196.949268,148.775862 Z M196.949268,226.603448 L196.949268,160.344828 L179.516291,160.344828 L179.516291,226.603448 L196.949268,226.603448 Z M246.342705,226.603448 L246.342705,213.325431 L239.3431,213.325431 C232.871767,213.325431 230.626611,211.747845 230.626611,204.517241 L230.626611,174.674569 L246.606841,174.674569 L246.606841,160.344828 L230.626611,160.344828 L230.626611,144.568966 L213.721906,144.568966 L213.721906,160.344828 L205.533689,160.344828 L205.533689,174.674569 L213.193634,174.674569 L213.193634,203.596983 C213.193634,220.424569 219.664966,226.603448 236.0414,226.603448 L246.342705,226.603448 Z M271.831831,227.655172 C280.284183,227.655172 285.038632,224.368534 287.283788,219.767241 L287.283788,226.603448 L303.924357,226.603448 L303.924357,182.825431 C303.924357,170.599138 300.490589,159.293103 279.359707,159.293103 C260.60605,159.293103 254.002649,167.575431 253.606445,182.299569 L269.058403,182.299569 C269.190471,174.806034 271.831831,173.359914 278.303163,173.359914 C285.038632,173.359914 286.49138,175.989224 286.49138,183.74569 L286.49138,186.375 L278.171095,187.952586 C260.209846,191.37069 252.021629,196.497845 252.021629,209.644397 C252.021629,221.739224 259.28537,227.655172 271.831831,227.655172 Z M276.850415,215.165948 C271.699763,215.165948 269.190471,212.668103 269.190471,207.803879 C269.190471,202.676724 272.228035,200.310345 281.076592,198.864224 L286.49138,198.075431 L286.49138,204.648707 C286.49138,212.405172 282.793476,215.165948 276.850415,215.165948 Z M334.3,226.603448 L334.3,133 L316.867023,133 L316.867023,226.603448 L334.3,226.603448 Z" id="Digital" fill="#CE0000"></path>
        </g>
    </g>
</svg></svg></g></g></svg></g></svg>