<?xml version="1.0" encoding="UTF-8"?>
<!-- Uploaded to: ICON Repo, www.svgrepo.com, Generator: ICON Repo Mixer Tools -->
<svg fill="#000000" width="800px" height="800px" version="1.1" viewBox="144 144 512 512" xmlns="http://www.w3.org/2000/svg">
 <g>
  <path d="m372.41 442.98h14.797l8.7031 14.555 8.7031-14.555h14.703l-16.762 25.055v18.059h-13.352v-18.059zm72.051 35.996h-15.176l-2.0859 7.1172h-13.609l16.199-43.109h14.523l16.211 43.109h-13.941l-2.1172-7.1172zm-2.7891-9.3242-4.7695-15.496-4.7383 15.496zm22.965-26.668h17.523l6.7656 26.227 6.7344-26.227h17.465v43.109h-10.879v-32.871l-8.4414 32.871h-9.8477l-8.4102-32.871v32.871h-10.91zm56.984 0h13.328v32.492h20.789v10.621h-34.117z"/>
  <path d="m375.78 406.95h176.52c10.883 0 20.77 4.4453 27.934 11.609 7.1641 7.1641 11.609 17.051 11.609 27.934v36.09c0 10.883-4.4453 20.77-11.609 27.934-7.1641 7.1641-17.051 11.609-27.934 11.609h-176.52c-10.883 0-20.77-4.4453-27.934-11.609-7.1641-7.1641-11.609-17.051-11.609-27.934v-36.09c0-10.883 4.4453-20.77 11.609-27.934 7.1641-7.1641 17.051-11.609 27.934-11.609zm176.52 14.508h-176.52c-6.8789 0-13.137 2.8203-17.676 7.3594-4.5391 4.5391-7.3594 10.797-7.3594 17.676v36.09c0 6.8789 2.8203 13.137 7.3594 17.676 4.5391 4.5391 10.797 7.3594 17.676 7.3594h176.52c6.8789 0 13.137-2.8203 17.676-7.3594 4.5391-4.5391 7.3594-10.797 7.3594-17.676v-36.09c0-6.8789-2.8203-13.137-7.3594-17.676-4.5391-4.5391-10.797-7.3594-17.676-7.3594z"/>
  <path d="m520.31 514.88v17.141c0 10.031-4.0977 19.148-10.703 25.75s-15.719 10.703-25.75 10.703h-171.18c-10.031 0-19.148-4.0977-25.75-10.703-6.6016-6.6055-10.703-15.719-10.703-25.75v-264.04c0-10.031 4.0977-19.148 10.703-25.75 6.6016-6.6016 15.719-10.703 25.75-10.703h171.18c10.031 0 19.148 4.0977 25.75 10.703 6.6016 6.6055 10.703 15.719 10.703 25.75v146.23h-14.508v-146.23c0-6.0273-2.4727-11.512-6.4531-15.492-3.9805-3.9805-9.4648-6.4531-15.492-6.4531h-171.18c-6.0273 0-11.512 2.4727-15.492 6.4531-3.9805 3.9805-6.4531 9.4648-6.4531 15.492v264.04c0 6.0273 2.4727 11.512 6.4531 15.492 3.9805 3.9805 9.4648 6.4531 15.492 6.4531h171.18c6.0273 0 11.512-2.4727 15.492-6.4531 3.9805-3.9805 6.4531-9.4648 6.4531-15.492v-17.141z"/>
  <path d="m520.31 514.88v17.141c0 10.031-4.0977 19.148-10.703 25.75s-15.719 10.703-25.75 10.703h-171.18c-10.031 0-19.148-4.0977-25.75-10.703-6.6016-6.6055-10.703-15.719-10.703-25.75v-264.04c0-10.031 4.0977-19.148 10.703-25.75 6.6016-6.6016 15.719-10.703 25.75-10.703h171.18c10.031 0 19.148 4.0977 25.75 10.703 6.6016 6.6055 10.703 15.719 10.703 25.75v146.23h-14.508v-146.23c0-6.0273-2.4727-11.512-6.4531-15.492-3.9805-3.9805-9.4648-6.4531-15.492-6.4531h-171.18c-6.0273 0-11.512 2.4727-15.492 6.4531-3.9805 3.9805-6.4531 9.4648-6.4531 15.492v264.04c0 6.0273 2.4727 11.512 6.4531 15.492 3.9805 3.9805 9.4648 6.4531 15.492 6.4531h171.18c6.0273 0 11.512-2.4727 15.492-6.4531 3.9805-3.9805 6.4531-9.4648 6.4531-15.492v-17.141z"/>
  <path d="m330.96 277.47c-4.0078 0-7.2539 3.25-7.2539 7.2539 0 4.0078 3.25 7.2539 7.2539 7.2539h134.62c4.0078 0 7.2539-3.25 7.2539-7.2539 0-4.0078-3.25-7.2539-7.2539-7.2539z"/>
  <path d="m488.44 564.58c-22.309 37.109-48.324 26.562-81.27 13.199-7.9258-3.2148-16.301-6.6094-24.762-9.3203l4.4219-13.773c9.332 2.9883 17.781 6.418 25.781 9.6602 26.551 10.77 47.512 19.27 63.418-7.1914l12.414 7.4258zm-204.39-15.121-1.8359-0.35547c-9.8633-1.9102-18.035-7.668-23.262-15.402-5.2227-7.7305-7.5078-17.449-5.6016-27.289l22.918-118.28 14.227 2.7188-22.918 118.28c-1.1484 5.9258 0.23828 11.789 3.3906 16.465 3.1523 4.668 8.0625 8.1406 13.965 9.2812l1.8359 0.35547zm24.586-314.9c23.957-37.449 47.652-27.23 80.418-13.105 7.8516 3.3828 16.289 7.0234 25.359 10.141l-4.7031 13.715c-9.5664-3.2891-18.277-7.043-26.379-10.539-26.234-11.309-45.211-19.492-62.508 7.5508l-12.188-7.7656zm205.69 16.332c9.8633 1.9102 18.035 7.668 23.262 15.402 5.2227 7.7305 7.5078 17.449 5.6016 27.289l-23.02 118.8-14.227-2.7188 23.02-118.8c1.1484-5.9258-0.23828-11.789-3.3906-16.465-3.1523-4.668-8.0625-8.1406-13.965-9.2812z"/>
  <path d="m330.96 318.61c-4.0078 0-7.2539 3.25-7.2539 7.2539 0 4.0078 3.25 7.2539 7.2539 7.2539h134.62c4.0078 0 7.2539-3.25 7.2539-7.2539 0-4.0078-3.25-7.2539-7.2539-7.2539z"/>
  <path d="m330.96 359.75c-4.0078 0-7.2539 3.25-7.2539 7.2539 0 4.0078 3.25 7.2539 7.2539 7.2539h134.62c4.0078 0 7.2539-3.25 7.2539-7.2539 0-4.0078-3.25-7.2539-7.2539-7.2539z"/>
 </g>
</svg>